<svg id="EXPORT" xmlns="http://www.w3.org/2000/svg" width="24" height="24" viewBox="0 0 24 24"><defs><style>.cls-1{fill:#080808;}</style></defs><title>alarm_clock</title><path class="cls-1" d="M12,3.88a8.56,8.56,0,1,0,8.56,8.56A8.56,8.56,0,0,0,12,3.88Zm0,15a6.42,6.42,0,1,1,6.42-6.42A6.43,6.43,0,0,1,12,18.86Z"/><polygon class="cls-1" points="13.02 11.42 13.02 7.42 11.02 7.42 11.02 13.42 17.02 13.42 17.02 11.42 13.02 11.42"/><path class="cls-1" d="M7.77,3.31A2.44,2.44,0,1,0,4,6.37Z"/><path class="cls-1" d="M19.58,2.94a2.44,2.44,0,0,0-3.43.37l3.79,3.06A2.43,2.43,0,0,0,19.58,2.94Z"/></svg>