<svg id="EXPORT" xmlns="http://www.w3.org/2000/svg" width="24" height="24" viewBox="0 0 24 24"><defs><style>.cls-1{fill:#080808;}</style></defs><title>asterisk</title><g id="Symbols-CDL"><g id="Icon-_-Asterisk" data-name="Icon-/-Asterisk"><g id="Asterisk---3"><path id="Combined-Shape" class="cls-1" d="M8.84,13.65h0Zm3.09,2.28L8,21.39a1,1,0,0,1-1.4.22L5,20.5H5a1,1,0,0,1-.22-1.4l4-5.48L2.41,11.55h0a1,1,0,0,1-.65-1.26l.59-1.8a1,1,0,0,1,1.26-.64l6.44,2.09h0V3.2a1,1,0,0,1,1-1h1.89a1,1,0,0,1,1,1V10h0l6.44-2.09a1,1,0,0,1,1.26.64h0l.59,1.8a1,1,0,0,1-.65,1.26l-6.43,2.09v0l0,0,3.93,5.41a1,1,0,0,1-.22,1.4h0l-1.53,1.11h0a1,1,0,0,1-1.4-.22L12,16Z"/></g></g></g></svg>