<svg id="EXPORT" xmlns="http://www.w3.org/2000/svg" width="24" height="24" viewBox="0 0 24 24"><defs><style>.cls-1{fill:#080808;fill-rule:evenodd;}</style></defs><title>bus</title><path class="cls-1" d="M20.23,7H20V5a2,2,0,0,0-2-2H6A2,2,0,0,0,4,5V7H4A.92.92,0,0,0,3,7.92H3v2.16A.92.92,0,0,0,4,11H4v6.44A1.6,1.6,0,0,0,5,18.9V20a1,1,0,0,0,1,1H7a1,1,0,0,0,1-1V19h8v1a1,1,0,0,0,1,1h1a1,1,0,0,0,1-1V18.91A1.56,1.56,0,0,0,20,17.44V11h.2a.76.76,0,0,0,.75-.75V7.75A.74.74,0,0,0,20.23,7ZM6,6A1,1,0,0,1,7,5H17a1,1,0,0,1,1,1v5a1,1,0,0,1-1,1H7a1,1,0,0,1-1-1ZM7,16.35A1.34,1.34,0,1,1,8.34,15,1.34,1.34,0,0,1,7,16.35Zm10-2.67a1.34,1.34,0,1,1-1.3,1.38V15A1.33,1.33,0,0,1,17,13.68Z"/></svg>