<svg id="EXPORT" xmlns="http://www.w3.org/2000/svg" width="24" height="24" viewBox="0 0 24 24"><defs><style>.cls-1{fill:#080808;}</style></defs><title>calculator</title><path class="cls-1" d="M3,2A1,1,0,0,0,2,3v8h9V2ZM9,7H4V6H9Z"/><path class="cls-1" d="M13,13v9h8a1,1,0,0,0,1-1V13Zm7,6H15V18h5Zm0-2H15V16h5Z"/><path class="cls-1" d="M21,2H13v9h9V3A1,1,0,0,0,21,2ZM20,7H18V9H17V7H15V6h2V4h1V6h2Z"/><path class="cls-1" d="M2,13v8a1,1,0,0,0,1,1h8V13Zm6.74,6-.7.7L6.62,18.33,5.21,19.74,4.5,19l1.41-1.42L4.5,16.21l.71-.71,1.41,1.41L8,15.5l.7.71L7.33,17.62Z"/></svg>