<svg id="EXPORT" xmlns="http://www.w3.org/2000/svg" width="24" height="24" viewBox="0 0 24 24"><defs><style>.cls-1{fill:#080808;}</style></defs><title>calc_3root_N</title><path class="cls-1" d="M14,22h8V11H14Zm2-9h4v7H16Z"/><path class="cls-1" d="M13,4a1,1,0,0,0-.95.7L7.91,18.84l-2-6.19A1,1,0,0,0,5,12H2v2H4.61l2.45,7.35A1,1,0,0,0,9,21.3L13.44,6H22V4Z"/><path class="cls-1" d="M8.16,4A1.84,1.84,0,0,1,6.65,5.76,1.79,1.79,0,0,1,8.41,7.64c0,1.3-1,2.36-2.86,2.36A3.13,3.13,0,0,1,3,8.86L3.88,8a2.12,2.12,0,0,0,1.58.73A1.16,1.16,0,0,0,6.74,7.54c0-.85-.47-1.16-1.32-1.16H4.8L5,5.24h.42A1,1,0,0,0,6.58,4.16c0-.59-.42-.94-1.08-.94A2.07,2.07,0,0,0,4,3.88L3.18,3A3.49,3.49,0,0,1,5.66,2C7.29,2,8.16,2.88,8.16,4Z"/></svg>