<svg id="EXPORT" xmlns="http://www.w3.org/2000/svg" width="24" height="24" viewBox="0 0 24 24"><defs><style>.cls-1{fill:#080808;}</style></defs><title>calc_e_pwrN</title><path class="cls-1" d="M16,2v8h6V2Zm4,6H18V4h2Z"/><path class="cls-1" d="M11.59,9c-2,0-4.15,2-4.15,4.91a2.91,2.91,0,0,0,3,3.25A4.32,4.32,0,0,0,13,16.36l-.47-.81a3.16,3.16,0,0,1-1.75.67c-1.35,0-2.39-.85-2.11-2.86h5.05A4.56,4.56,0,0,0,14,11.85C14,10.24,13.34,9,11.59,9Zm1.28,3.5H8.79A3,3,0,0,1,11.45,10c1.11,0,1.5.84,1.5,1.73A3.91,3.91,0,0,1,12.87,12.53Z"/></svg>