<svg id="EXPORT" xmlns="http://www.w3.org/2000/svg" width="24" height="24" viewBox="0 0 24 24"><defs><style>.cls-1{fill:#080808;}</style></defs><title>calc_log_subN</title><path class="cls-1" d="M17,14v8h5V14Zm3,6H19V16h1Z"/><path class="cls-1" d="M2,13.51v-7l1-.12v7.08c0,.31.1.46.37.46a1.06,1.06,0,0,0,.37-.06l.26.7a1.69,1.69,0,0,1-.8.2A1.14,1.14,0,0,1,2,13.51Z"/><path class="cls-1" d="M9.47,11.75c0,1.79-1,3-2.58,3s-2.59-1.19-2.59-3,1-3,2.6-3S9.47,9.92,9.47,11.75Zm-4.08,0c0,1.51.53,2.21,1.5,2.21s1.49-.7,1.49-2.22S7.85,9.54,6.9,9.54,5.39,10.24,5.39,11.76Z"/><path class="cls-1" d="M15.27,9.12a5.51,5.51,0,0,1-1.7.18,1.52,1.52,0,0,1,1,1.46,2,2,0,0,1-2.21,2,2.25,2.25,0,0,1-.74-.11.69.69,0,0,0-.29.54c0,.26.17.47.76.47h.93c1.18,0,2,.69,2,1.61C15,16.36,14.1,17,12.31,17s-2.49-.58-2.49-1.76h.91c0,.66.3,1,1.58,1s1.69-.32,1.69-.9-.44-.83-1.16-.83h-.92c-1,0-1.49-.52-1.49-1.1a1.26,1.26,0,0,1,.63-1,1.66,1.66,0,0,1-1-1.61,2.06,2.06,0,0,1,2.23-2A5,5,0,0,0,15,8.21Zm-4.15,1.63a1.18,1.18,0,0,0,1.22,1.31,1.15,1.15,0,0,0,1.22-1.32,1.13,1.13,0,0,0-1.24-1.29A1.16,1.16,0,0,0,11.12,10.75Z"/></svg>