<svg id="EXPORT" xmlns="http://www.w3.org/2000/svg" width="24" height="24" viewBox="0 0 24 24"><defs><style>.cls-1{fill:#080808;}</style></defs><title>calc_10_pwrN</title><path class="cls-1" d="M16,2v8h6V2Zm4,6H18V4h2Z"/><path class="cls-1" d="M5.09,8,3.38,9l-.6-1L5.26,6.49H6.47V16.82H5.09Z"/><path class="cls-1" d="M14.72,11.65c0,3.49-1.11,5.35-3.36,5.35S8,15.14,8,11.65s1.11-5.34,3.36-5.34S14.72,8.17,14.72,11.65Zm-5.28,0c0,3.12.66,4.26,1.92,4.26s1.92-1.14,1.92-4.26S12.6,7.4,11.36,7.4,9.44,8.54,9.44,11.65Z"/></svg>