<svg id="EXPORT" xmlns="http://www.w3.org/2000/svg" width="24" height="24" viewBox="0 0 24 24"><defs><style>.cls-1{fill:#080808;}</style></defs><title>calendar</title><path class="cls-1" d="M20,4H18V2H16V4H8V2H6V4H4A1,1,0,0,0,3,5V21a1,1,0,0,0,1,1H20a1,1,0,0,0,1-1V5A1,1,0,0,0,20,4ZM5,20V10H19V20Z"/><rect class="cls-1" x="7" y="12" width="2" height="2"/><rect class="cls-1" x="11" y="12" width="2" height="2"/><rect class="cls-1" x="15" y="12" width="2" height="2"/><rect class="cls-1" x="15" y="16" width="2" height="2"/><rect class="cls-1" x="11" y="16" width="2" height="2"/><rect class="cls-1" x="7" y="16" width="2" height="2"/></svg>