<svg id="EXPORT" xmlns="http://www.w3.org/2000/svg" width="24" height="24" viewBox="0 0 24 24"><defs><style>.cls-1{fill:#080808;}</style></defs><title>closed_captions</title><path class="cls-1" d="M21,3H3A1,1,0,0,0,2,4V20a1,1,0,0,0,1,1H21a1,1,0,0,0,1-1V4A1,1,0,0,0,21,3ZM9.22,16c-2,0-3.64-1.38-3.64-4s1.72-4.1,3.69-4.1a3.28,3.28,0,0,1,2.35,1l-.93,1.13a2,2,0,0,0-1.38-.62c-1.07,0-1.92,1-1.92,2.51s.75,2.54,1.89,2.54a2,2,0,0,0,1.53-.73l.93,1.11A3.19,3.19,0,0,1,9.22,16ZM16,16c-2,0-3.64-1.38-3.64-4s1.71-4.1,3.69-4.1a3.3,3.3,0,0,1,2.35,1l-.93,1.13a2,2,0,0,0-1.38-.62c-1.07,0-1.92,1-1.92,2.51s.75,2.54,1.89,2.54a2,2,0,0,0,1.53-.73l.93,1.11A3.2,3.2,0,0,1,16,16Z"/></svg>