<svg id="EXPORT" xmlns="http://www.w3.org/2000/svg" width="24" height="24" viewBox="0 0 24 24"><defs><style>.cls-1{fill:#080808;}</style></defs><title>comment_question</title><path class="cls-1" d="M20,2H4A1,1,0,0,0,3,3V17a1,1,0,0,0,1,1H7v4l4.94-4H20a1,1,0,0,0,1-1V3A1,1,0,0,0,20,2ZM19,16H11.24L9,17.82V16H5V4H19Z"/><path class="cls-1" d="M11,8.08a1.32,1.32,0,0,1,.21-.45,1,1,0,0,1,.35-.31A1.16,1.16,0,0,1,12,7.2a1,1,0,0,1,.69.24A1,1,0,0,1,13,8.2a1,1,0,0,1-.11.5,1.52,1.52,0,0,1-.3.37l-.41.33a3.88,3.88,0,0,0-.42.39A2.21,2.21,0,0,0,11.21,11v.6h1.45v-.52a1.26,1.26,0,0,1,.22-.45,1.8,1.8,0,0,1,.39-.39l.47-.34a2.24,2.24,0,0,0,.45-.42,2.32,2.32,0,0,0,.34-.59A2.45,2.45,0,0,0,14.72,8a2,2,0,0,0-.14-.69,1.9,1.9,0,0,0-.46-.69,2.52,2.52,0,0,0-.85-.54A3.42,3.42,0,0,0,12,5.91a3,3,0,0,0-1.1.21,2.41,2.41,0,0,0-.84.57,2.66,2.66,0,0,0-.54.86,3.15,3.15,0,0,0-.2,1.1H10.9A2.2,2.2,0,0,1,11,8.08Z"/><rect class="cls-1" x="11.16" y="12.45" width="1.54" height="1.56"/></svg>