<svg id="EXPORT" xmlns="http://www.w3.org/2000/svg" width="24" height="24" viewBox="0 0 24 24"><defs><style>.cls-1{fill:#080808;}</style></defs><title>comment_thumbs_up</title><path class="cls-1" d="M20,2H4A1,1,0,0,0,3,3V17a1,1,0,0,0,1,1H7v4l4.94-4H20a1,1,0,0,0,1-1V3A1,1,0,0,0,20,2ZM19,16H11.24L9,17.82V16H5V4H19Z"/><path class="cls-1" d="M16.52,9.05a.46.46,0,0,0-.39-.51H12.85s.46-1.27.73-2.08-.1-1.33-.59-.84L10.23,8.39A.79.79,0,0,0,10,9v4.44a.18.18,0,0,0,.17.17H15a.79.79,0,0,0,.73-.48s.84-3,.84-3.08Z"/><rect class="cls-1" x="7.52" y="8.56" width="1.48" height="4.98"/></svg>