<svg id="EXPORT" xmlns="http://www.w3.org/2000/svg" width="24" height="24" viewBox="0 0 24 24"><defs><style>.cls-1,.cls-2{fill:#080808;}.cls-1{fill-rule:evenodd;}</style></defs><title>comment_highlight</title><path class="cls-1" d="M17,16H10.24L8,17.82V16H4V6h9l2-2H3A1,1,0,0,0,2,5V17a1,1,0,0,0,1,1H6v4l4.94-4H18a1,1,0,0,0,1-1V12l-2,2.13Z"/><path class="cls-1" d="M22.43,3.73,21.26,2.54a.69.69,0,0,0-1,0l0,0-1,1,2.08,2.17,1.05-1a.68.68,0,0,0,0-1Z"/><polygon class="cls-1" points="12.93 9.96 12.93 12.06 14.99 12.06 20.68 6.38 18.58 4.21 12.93 9.96"/><rect class="cls-2" x="6" y="13" width="9" height="1"/></svg>