<svg id="EXPORT" xmlns="http://www.w3.org/2000/svg" width="24" height="24" viewBox="0 0 24 24"><defs><style>.cls-1{fill:#080808;}</style></defs><title>comment_microphone</title><path class="cls-1" d="M20,2H4A1,1,0,0,0,3,3V17a1,1,0,0,0,1,1H7v4l4.94-4H20a1,1,0,0,0,1-1V3A1,1,0,0,0,20,2ZM19,16H11.24L9,17.82V16H5V4H19Z"/><rect class="cls-1" x="10.57" y="5.49" width="2.83" height="5.52" rx="1.41"/><path class="cls-1" d="M15.48,9.53a.5.5,0,1,0-1,0,2.5,2.5,0,0,1-5,0,.5.5,0,1,0-1,0,3.51,3.51,0,0,0,3,3.47v1a.5.5,0,0,0,1,0V13A3.51,3.51,0,0,0,15.48,9.53Z"/></svg>