<svg id="EXPORT" xmlns="http://www.w3.org/2000/svg" width="24" height="24" viewBox="0 0 24 24"><defs><style>.cls-1,.cls-2{fill:#080808;}.cls-2{fill-rule:evenodd;}</style></defs><title>document_pencil</title><path class="cls-1" d="M12,22V20H6V4H18v9l2-2V3a1,1,0,0,0-1-1H5A1,1,0,0,0,4,3V21a1,1,0,0,0,1,1Z"/><rect class="cls-1" x="8.04" y="11" width="8" height="2"/><rect class="cls-1" x="8.04" y="7" width="8" height="2"/><rect class="cls-1" x="8.04" y="15" width="6" height="2"/><path class="cls-2" d="M19.74,14.38l.88-.88a.63.63,0,0,1,.88,0h0l1,1.07a.63.63,0,0,1,0,.88h0l-.94.88"/><polygon class="cls-2" points="15.88 22.03 14.03 22.03 14.03 20.15 19.09 14.99 20.98 16.94 15.88 22.03"/></svg>