<svg width="24" height="24" viewBox="0 0 24 24" fill="none" xmlns="http://www.w3.org/2000/svg">
<path fill-rule="evenodd" clip-rule="evenodd" d="M15 22L13 20H6V4H18V15L20 13V3C20 2.447 19.553 2 19 2H5C4.447 2 4 2.447 4 3V21C4 21.553 4.447 22 5 22H15ZM8.04 13H16.04V11H8.04V13ZM16.04 9H8.04V7H16.04V9ZM8.04 17H12.04V15H8.04V17ZM15.1576 19.76L15.148 19.768L16.4434 21L16.4517 20.9907L16.4613 21L16.8106 20.668L20.4053 17.45L22.4288 15.6385L24 14.232L22.706 13L21.3509 14.2127L16.4888 18.564L14.3037 16.476L13 17.7067L15.1576 19.76Z" fill="#080808"/>
</svg>
