<svg id="EXPORT" xmlns="http://www.w3.org/2000/svg" width="24" height="24" viewBox="0 0 24 24"><defs><style>.cls-1{fill:#080808;}</style></defs><title>embed</title><polygon class="cls-1" points="8 8 4 12 8 16 8.71 15.29 5.41 12 8.71 8.71 8 8"/><polygon class="cls-1" points="16 16 20 12 16 8 15.29 8.71 18.59 12 15.29 15.29 16 16"/><polygon class="cls-1" points="3 3 3 8 5 8 5 5 19 5 19 8 21 8 21 3 3 3"/><polygon class="cls-1" points="19 19 5 19 5 16 3 16 3 21 21 21 21 16 19 16 19 19"/><polygon class="cls-1" points="13 7 10 17 11 17 14 7 13 7"/></svg>