<svg id="EXPORT" xmlns="http://www.w3.org/2000/svg" width="24" height="24" viewBox="0 0 24 24"><defs><style>.cls-1{fill:#080808;fill-rule:evenodd;}</style></defs><title>fullscreen_collapse</title><polygon class="cls-1" points="21.41 4 20 2.59 16.95 5.64 14 2.75 14 10 21.38 10 18.37 7.04 21.41 4"/><polygon class="cls-1" points="5.63 16.96 2.58 20 4 21.41 7.06 18.36 10 21.25 10 14 2.62 14 5.63 16.96"/><polygon class="cls-1" points="20 21.41 21.41 20 18.36 16.95 21.25 14 14 14 14 21.38 16.96 18.37 20 21.41"/><polygon class="cls-1" points="7.04 5.63 4 2.58 2.58 4 5.64 7.06 2.75 10 10 10 10 2.62 7.04 5.63"/></svg>