<svg id="EXPORT" xmlns="http://www.w3.org/2000/svg" width="24" height="24" viewBox="0 0 24 24"><defs><style>.cls-1{fill:#080808;fill-rule:evenodd;}</style></defs><title>fullscreen_expand</title><polygon class="cls-1" points="13.62 3 16.63 5.96 13 9.59 14.42 11 18.06 7.36 21 10.25 21 3 13.62 3"/><polygon class="cls-1" points="9.59 13 5.95 16.64 3 13.75 3 21 10.38 21 7.37 18.04 11 14.41 9.59 13"/><polygon class="cls-1" points="14.42 13 13 14.41 16.64 18.06 13.75 21 21 21 21 13.62 18.05 16.63 14.42 13"/><polygon class="cls-1" points="10.25 3 3 3 3 10.38 5.96 7.37 9.59 11 11 9.59 7.36 5.94 10.25 3"/></svg>