<svg id="EXPORT" xmlns="http://www.w3.org/2000/svg" width="24" height="24" viewBox="0 0 24 24"><title>gear</title><path class="cls-1" d="M21,13V11l-2.23-.74A6.9,6.9,0,0,0,18,8.37l1-2.11-1.43-1.4L15.52,5.93a7.32,7.32,0,0,0-1.74-.71L13,3H11l-.7,2.23A6.9,6.9,0,0,0,8.41,6L6.3,5,4.9,6.43,6,8.52a7.32,7.32,0,0,0-.71,1.74L3,11v2l2.23.74A6.85,6.85,0,0,0,6,15.63L5,17.75l1.43,1.4,2.08-1.08a7.32,7.32,0,0,0,1.74.71L11,21h2l.74-2.23a6.85,6.85,0,0,0,1.89-.8l2.11,1,1.4-1.43-1.08-2.08a7.32,7.32,0,0,0,.71-1.74Zm-9,2a3,3,0,1,1,3-3A3,3,0,0,1,12,15Z"/></svg>