<svg id="EXPORT" xmlns="http://www.w3.org/2000/svg" width="24" height="24" viewBox="0 0 24 24"><defs><style>.cls-1{fill:#080808;}</style></defs><title>head</title><path class="cls-1" d="M20.6,13.32,19.07,11a1,1,0,0,1-.13-.8,6.11,6.11,0,0,0,.17-1.41A7.06,7.06,0,0,0,11.77,2,7.05,7.05,0,0,0,4.43,8.77v.36h0c0,3.27,2.14,5.75,2.6,8.46a22.72,22.72,0,0,1,0,3.3,1,1,0,0,0,1,1H12.7a1,1,0,0,0,1-1,.76.76,0,0,0,0-.15c-.2-2.15,2-.45,3.77-1,.84-.27,1.3-2.83,1.48-4.08a1,1,0,0,1,.77-.84h.19a1,1,0,0,0,.82-1.15A.92.92,0,0,0,20.6,13.32ZM16,8.23c-2.51,2.3-1.52,4.33-4.3,4.33s-5-1.94-5-4.33,2.26-4,5-4S17.79,6.62,16,8.23Z"/></svg>