<svg id="EXPORT" xmlns="http://www.w3.org/2000/svg" width="24" height="24" viewBox="0 0 24 24"><defs><style>.cls-1{fill:#080808;}</style></defs><title>heart_outline</title><path class="cls-1" d="M16,4a5,5,0,0,0-4,2A5,5,0,0,0,3,9a4.56,4.56,0,0,0,1,2.9c.61.76,8,8.1,8,8.1s7.32-7.14,8-8.11A4.53,4.53,0,0,0,21,9,5,5,0,0,0,16,4Zm2.42,6.71c-.41.53-3.36,3.5-6.4,6.49C8.91,14.09,5.85,11,5.49,10.61A2.58,2.58,0,0,1,5,9,3,3,0,0,1,8,6a3.5,3.5,0,0,1,2.4,1.23L12,9l1.61-1.77A3.52,3.52,0,0,1,16,6a3,3,0,0,1,3,3,2.53,2.53,0,0,1-.57,1.71Z"/></svg>