<svg id="EXPORT" xmlns="http://www.w3.org/2000/svg" width="24" height="24" viewBox="0 0 24 24"><defs><style>.cls-1{fill:#080808;}</style></defs><title>help</title><path class="cls-1" d="M12,2A10,10,0,1,0,22,12,10,10,0,0,0,12,2Zm1,15H11V15h2Zm2.4-6.46a2.69,2.69,0,0,1-.44.75,2.93,2.93,0,0,1-.58.53l-.6.44a2.37,2.37,0,0,0-.5.5,1.56,1.56,0,0,0-.28.58V14H11.12v-.76a2.82,2.82,0,0,1,.68-1.58,4.18,4.18,0,0,1,.53-.5c.19-.14.36-.28.52-.42a1.91,1.91,0,0,0,.39-.46,1.14,1.14,0,0,0,.13-.63,1.3,1.3,0,0,0-.32-1,1.19,1.19,0,0,0-.88-.31,1.44,1.44,0,0,0-.65.15,1.3,1.3,0,0,0-.45.39,1.78,1.78,0,0,0-.26.58,2.81,2.81,0,0,0-.08.71H8.66A4,4,0,0,1,8.92,8.8a3.41,3.41,0,0,1,.69-1.1A3.2,3.2,0,0,1,10.68,7a3.52,3.52,0,0,1,1.4-.26A4.48,4.48,0,0,1,13.74,7a3.14,3.14,0,0,1,1.08.68,2.46,2.46,0,0,1,.58.88,2.66,2.66,0,0,1,.18.88,3,3,0,0,1-.18,1.11Z"/></svg>