<svg id="EXPORT" xmlns="http://www.w3.org/2000/svg" width="24" height="24" viewBox="0 0 24 24"><defs><style>.cls-1{fill:#080808;}</style></defs><title>help_outline</title><path class="cls-1" d="M12,2A10,10,0,1,0,22,12,10,10,0,0,0,12,2Zm0,18a8,8,0,1,1,8-8A8,8,0,0,1,12,20Z"/><rect class="cls-1" x="11.05" y="15.03" width="1.95" height="1.98"/><path class="cls-1" d="M14.82,7.68A3.14,3.14,0,0,0,13.74,7a4.31,4.31,0,0,0-1.67-.27,3.52,3.52,0,0,0-1.4.26,3.11,3.11,0,0,0-1.07.72,3.41,3.41,0,0,0-.69,1.1,3.85,3.85,0,0,0-.26,1.39h2.07a2.81,2.81,0,0,1,.08-.71,1.78,1.78,0,0,1,.26-.58,1.3,1.3,0,0,1,.45-.39,1.44,1.44,0,0,1,.65-.15,1.19,1.19,0,0,1,.88.31,1.3,1.3,0,0,1,.32,1,1.14,1.14,0,0,1-.13.63,1.91,1.91,0,0,1-.39.46c-.16.14-.33.28-.52.42a4.18,4.18,0,0,0-.53.5,2.82,2.82,0,0,0-.68,1.58V14H13l.06-.66a1.56,1.56,0,0,1,.28-.58,2.37,2.37,0,0,1,.5-.5l.6-.44a2.93,2.93,0,0,0,.58-.53,2.69,2.69,0,0,0,.44-.75,3,3,0,0,0,.18-1.11,2.66,2.66,0,0,0-.18-.88A2.49,2.49,0,0,0,14.82,7.68Z"/></svg>