<svg id="EXPORT" xmlns="http://www.w3.org/2000/svg" width="24" height="24" viewBox="0 0 24 24"><defs></defs><title>item_edit_duplicate</title><path d="M20,9.92V20H6v1a1,1,0,0,0,1,1H21a1,1,0,0,0,1-1V8Z"/><path d="M4.5,18H3a1,1,0,0,1-1-1V15.5H4l.5.5Z"/><path d="M4,13.67H2V10.92H4ZM4,9.08H2V6.33H4Z"/><path d="M4,4.5H2V3A1,1,0,0,1,3,2H4.5V4Z"/><path d="M13.67,4H10.92V2h2.75ZM9.08,4H6.33V2H9.08Z"/><polygon points="6.4 15.13 6.4 17.68 8.91 17.68 19.21 7.39 16.65 4.74 6.4 15.13"/><path d="M21.34,4.17,19.91,2.72a.86.86,0,0,0-1.19,0L17.53,3.91l2.54,2.65,1.27-1.19a.85.85,0,0,0,0-1.2Z"/></svg>