<svg id="EXPORT" xmlns="http://www.w3.org/2000/svg" width="24" height="24" viewBox="0 0 24 24"><defs><style>.cls-1{fill:#080808;}</style></defs><title>item_cut</title><path class="cls-1" d="M22,5s-3.42-1.21-5.48.2C15.47,6,12.44,8.49,9.9,10.69L7.3,8.92h0A3,3,0,0,0,8,7.29,3,3,0,1,0,4.72,10a1.93,1.93,0,0,0,.34,0l0,0a6.93,6.93,0,0,1,2.61,1.35l.75.66-.75.66A6.93,6.93,0,0,1,5,14l0,0a1.82,1.82,0,0,0-.33,0A3,3,0,1,0,7.31,15.1h0ZM4.83,8.79a1.8,1.8,0,1,1,2-1.62A1.79,1.79,0,0,1,4.83,8.79Zm.35,10a1.8,1.8,0,1,1,1.62-2A1.79,1.79,0,0,1,5.18,18.8Z"/><path class="cls-1" d="M10.82,14.12c2.31,2,4.78,4,5.74,4.68C18.62,20.21,22,19,22,19l-9.18-6.28Z"/></svg>