<svg id="EXPORT" xmlns="http://www.w3.org/2000/svg" width="48" height="48" viewBox="0 0 48 48"><defs><style>.cls-1{fill:#080808;}</style></defs><title>lg_question_shared</title><rect class="cls-1" x="9" y="16" width="7" height="3"/><rect class="cls-1" x="9" y="22" width="7" height="3"/><rect class="cls-1" x="9" y="28" width="7" height="3"/><path class="cls-1" d="M44,16V4H32V9.54l-11,9.3V4H4V44H21V29.16l11,9.3V44H44V32H32v3.84l-11-9.3V25H32v5H44V18H32v5H21V21.46l11-9.3V16ZM34,6h8v8H34Zm0,28h8v8H34Zm0-14h8v8H34ZM18,41H7V7H18Z"/></svg>