<svg id="EXPORT" xmlns="http://www.w3.org/2000/svg" width="48" height="48" viewBox="0 0 48 48"><defs><style>.cls-1{fill:#080808;}</style></defs><title>lg_question_pool</title><path class="cls-1" d="M4,4V38H38V4ZM35,35H7V7H35Z"/><polygon class="cls-1" points="41 10 41 41 10 41 10 44 44 44 44 10 41 10"/><path class="cls-1" d="M32,15.53l-5.53-4.42v2.72c-5,.33-7,3.6-8.68,6.3S14.84,24.92,11,24.92v3.32c5.69,0,7.87-3.53,9.62-6.37,1.54-2.51,2.74-4.43,5.85-4.71V20Z"/><path class="cls-1" d="M11,17.18a6,6,0,0,1,5.18,2.41l.2-.33c.48-.78,1-1.66,1.69-2.53A9.2,9.2,0,0,0,11,13.87Z"/><path class="cls-1" d="M32,26.58l-5.53-4.42V25a5.76,5.76,0,0,1-4.32-2.41l-.12.2c-.52.83-1.09,1.75-1.78,2.65a9,9,0,0,0,6.22,2.88V31Z"/></svg>