<svg id="EXPORT" xmlns="http://www.w3.org/2000/svg" width="24" height="24" viewBox="0 0 24 24"><defs><style>.cls-1{fill:#080808;}</style></defs><title>link</title><path class="cls-1" d="M12.71,14.12,10.9,15.93l-.63.63-1.81,1.8a2,2,0,0,1-2.82-2.82L7.3,13.87a5.93,5.93,0,0,1-.57-2.25l-2.51,2.5a4,4,0,0,0,5.66,5.66l4.24-4.24a4,4,0,0,0,0-5.66l-1.41,1.41A2,2,0,0,1,12.71,14.12Z"/><path class="cls-1" d="M14.12,4.22,9.88,8.46a4,4,0,0,0,0,5.66l1.41-1.41a2,2,0,0,1,0-2.83L13.1,8.07l.63-.63,1.81-1.8a2,2,0,0,1,2.82,2.82L16.7,10.13a5.93,5.93,0,0,1,.57,2.25l2.51-2.5a4,4,0,0,0-5.66-5.66Z"/></svg>