<svg id="EXPORT" xmlns="http://www.w3.org/2000/svg" width="24" height="24" viewBox="0 0 24 24"><defs><style>.cls-1,.cls-2{fill:#080808;}.cls-2{fill-rule:evenodd;}</style></defs><title>list_numbered</title><rect class="cls-1" x="8" y="3" width="13" height="3"/><rect class="cls-1" x="4" y="2" width="1" height="5"/><rect class="cls-1" x="8" y="10" width="13" height="3"/><rect class="cls-1" x="8" y="17" width="13" height="3"/><polygon class="cls-2" points="3 10 5 10 5 11 3 11 3 14 6 14 6 13 4 13 4 12 6 12 6 9 3 9 3 10"/><polygon class="cls-2" points="3 17 5 17 5 18 3 18 3 19 5 19 5 20 3 20 3 21 6 21 6 16 3 16 3 17"/></svg>