<svg id="EXPORT" xmlns="http://www.w3.org/2000/svg" width="24" height="24" viewBox="0 0 24 24"><defs><style>.cls-1{fill:#080808;}</style></defs><title>monospace</title><path class="cls-1" d="M7.85,3.14a2.83,2.83,0,0,0-1.2.65,2.16,2.16,0,0,0-.57,1.09,11.93,11.93,0,0,0-.16,2.4,9.94,9.94,0,0,1-.07,1.48,2.47,2.47,0,0,1-.33,1,1.29,1.29,0,0,1-.56.53,2.61,2.61,0,0,1-1,.2v2.13a2.08,2.08,0,0,1,1.19.35,1.86,1.86,0,0,1,.59,1,10,10,0,0,1,.14,2.12,10,10,0,0,0,.15,2.05,2.25,2.25,0,0,0,.58,1.1,2.56,2.56,0,0,0,1.07.63A6.47,6.47,0,0,0,9.53,20H10V17.89a3.9,3.9,0,0,1-1.23-.12.84.84,0,0,1-.43-.35,1.69,1.69,0,0,1-.14-.81c0-.27,0-.9-.06-1.88a6.71,6.71,0,0,0-.23-1.54,2.83,2.83,0,0,0-.5-1,3.15,3.15,0,0,0-.85-.71,3.77,3.77,0,0,0,.87-.73,2.94,2.94,0,0,0,.47-.9,5.61,5.61,0,0,0,.23-1.43c0-1,.08-1.74.08-2.11a1.63,1.63,0,0,1,.13-.78.82.82,0,0,1,.41-.34A4.39,4.39,0,0,1,10,5.1V3H9.53A6.73,6.73,0,0,0,7.85,3.14Z"/><path class="cls-1" d="M19,10.24a1.4,1.4,0,0,1-.56-.53,2.32,2.32,0,0,1-.32-1,9.94,9.94,0,0,1-.07-1.48,12.75,12.75,0,0,0-.16-2.4,2.32,2.32,0,0,0-.57-1.09,3,3,0,0,0-1.2-.65A6.76,6.76,0,0,0,14.46,3H14V5.1a4.39,4.39,0,0,1,1.25.11.87.87,0,0,1,.41.34,1.77,1.77,0,0,1,.13.78c0,.37,0,1.07.08,2.11a5.2,5.2,0,0,0,.23,1.43,2.92,2.92,0,0,0,.46.9,3.86,3.86,0,0,0,.88.73,3,3,0,0,0-.85.71,2.67,2.67,0,0,0-.5,1,6.2,6.2,0,0,0-.23,1.54c0,1-.06,1.61-.06,1.88a1.69,1.69,0,0,1-.14.81.88.88,0,0,1-.43.35,3.9,3.9,0,0,1-1.23.12V20h.46a6.55,6.55,0,0,0,1.82-.19,2.52,2.52,0,0,0,1.06-.63,2.27,2.27,0,0,0,.59-1.1,10,10,0,0,0,.15-2.05,9.37,9.37,0,0,1,.14-2.12,1.85,1.85,0,0,1,.58-1,2.09,2.09,0,0,1,1.2-.35V10.44A2.68,2.68,0,0,1,19,10.24Z"/></svg>