<svg width="24" height="25" viewBox="0 0 24 25" fill="none" xmlns="http://www.w3.org/2000/svg">
<path fill-rule="evenodd" clip-rule="evenodd" d="M2 18H5V5C5 4.447 5.447 4 6 4H14V2H2V18ZM16 4H20C20.553 4 21 4.447 21 5V13L19 15V6H7V22H13V24H6C5.447 24 5 23.553 5 23V20H1C0.447 20 0 19.553 0 19V1C0 0.447 0.447 0 1 0H15C15.553 0 16 0.447 16 1V4ZM9.04 15H17.04V13H9.04V15ZM17.04 11H9.04V9H17.04V11ZM9.04 19H15.04V17H9.04V19ZM21.6202 15.4999L20.7402 16.3799L22.5592 18.3299L23.5002 17.4499L23.5032 17.4469C23.7442 17.2039 23.7432 16.8119 23.5002 16.5699L22.5002 15.4999L22.4972 15.4969C22.2542 15.2559 21.8612 15.2569 21.6202 15.4999ZM16.8799 24.0303H15.0299V22.1503L20.0899 16.9903L21.9809 18.9403L16.8799 24.0303Z" fill="#080808"/>
</svg>
