<svg id="EXPORT" xmlns="http://www.w3.org/2000/svg" width="24" height="24" viewBox="0 0 24 24"><defs><style>.cls-1{fill:#080808;}</style></defs><title>periodic_table</title><path class="cls-1" d="M23,12c0-1.63-2.14-2.78-5.08-3.42.92-2.86,1-5.29-.42-6.11S14,2.94,12,5.16c-.38-.41-.75-.8-1.13-1.14C8.63,2,7.27,2,6.52,2.47S5,4.05,5.67,7c.11.5.26,1,.43,1.55C3.16,9.22,1,10.37,1,12s2.14,2.78,5.08,3.42c-.17.53-.32,1-.43,1.55-.65,3,.1,4.12.85,4.56a2,2,0,0,0,1,.25c.79,0,1.9-.43,3.4-1.8.38-.34.75-.73,1.13-1.14,1.6,1.76,3.24,2.93,4.55,2.93a1.84,1.84,0,0,0,.95-.24c1.42-.82,1.34-3.25.42-6.11C20.88,14.78,23,13.63,23,12ZM16.54,3.72a.52.52,0,0,1,.23,0c.48.28.54,1.95-.32,4.55q-1-.16-2.16-.24c-.43-.62-.86-1.21-1.29-1.76C14.58,4.54,15.91,3.72,16.54,3.72Zm-.87,6.62a3.72,3.72,0,0,0-.19-.34l-.19-.33.63.08C15.84,9.94,15.76,10.14,15.67,10.34Zm.25,3.91-.63.08.19-.33a3.72,3.72,0,0,0,.19-.34C15.76,13.86,15.84,14.06,15.92,14.25ZM12,7.5c.13.16.25.33.38.51h-.76C11.77,7.83,11.89,7.66,12,7.5ZM7.27,3.77a.48.48,0,0,1,.22,0A4.51,4.51,0,0,1,9.88,5.13a14.71,14.71,0,0,1,1.17,1.19c-.44.56-.87,1.15-1.29,1.76-.74.05-1.47.13-2.17.24-.18-.56-.34-1.1-.45-1.61C6.76,5,6.94,4,7.27,3.77ZM8.56,10c-.07.11-.12.22-.18.33-.08-.2-.18-.39-.26-.58l.63-.08Zm.19,4.33-.63-.08c.08-.19.18-.38.26-.58.06.11.11.22.18.33ZM2.52,12c0-.55,1.42-1.44,4.1-2,.26.66.55,1.32.88,2-.33.68-.62,1.34-.88,2C3.94,13.44,2.52,12.55,2.52,12Zm7.36,6.87c-1.32,1.21-2.28,1.55-2.61,1.36s-.51-1.2-.13-2.94c.11-.51.27-1.05.45-1.61.7.11,1.43.19,2.17.24.41.61.85,1.21,1.28,1.76A16.53,16.53,0,0,1,9.88,18.87ZM12,16.5c-.13-.16-.25-.33-.38-.51h.76C12.27,16.17,12.15,16.34,12,16.5Zm0-2c-.49,0-1,0-1.42,0-.25-.39-.5-.79-.74-1.22S9.4,12.42,9.18,12c.22-.42.43-.83.68-1.25s.49-.83.74-1.22c.46,0,.93,0,1.42,0s1,0,1.42,0c.26.4.5.8.75,1.22s.47.84.68,1.25c-.21.41-.44.82-.68,1.25s-.49.82-.75,1.22C13,14.49,12.52,14.5,12,14.5Zm4.75,5.73c-.48.27-1.95-.51-3.77-2.55.43-.55.86-1.14,1.29-1.76q1.11-.08,2.16-.24C17.31,18.28,17.25,20,16.77,20.23ZM17.43,14c-.26-.65-.56-1.32-.88-2,.32-.67.62-1.34.88-2,2.67.55,4.09,1.44,4.09,2S20.1,13.44,17.43,14Z"/><circle class="cls-1" cx="12.02" cy="12" r="1"/></svg>