<svg id="EXPORT" xmlns="http://www.w3.org/2000/svg" width="24" height="24" viewBox="0 0 24 24"><defs><style>.cls-1{fill:#080808;}</style></defs><title>person_group</title><path class="cls-1" d="M11.37,7.49c0,2-1.42,4.12-3.25,4.12S4.87,9.49,4.87,7.49s1-3.61,3.25-3.61S11.37,5.49,11.37,7.49Z"/><path class="cls-1" d="M14.42,19a.72.72,0,0,0,.7-.73c0-7.48-3.26-4.81-7-4.81s-7-2.7-7,4.81a.72.72,0,0,0,.7.73Z"/><path class="cls-1" d="M19.5,8.64c0,1.62-1.15,3.34-2.64,3.34s-2.64-1.72-2.64-3.34.83-2.93,2.64-2.93S19.5,7,19.5,8.64Z"/><path class="cls-1" d="M16.44,13.71h-.76A14.9,14.9,0,0,1,16.46,18a1.08,1.08,0,0,1-.55,1h6.46a.67.67,0,0,0,.66-.68h0C23,11,20,13.71,16.44,13.71Z"/></svg>