<svg id="EXPORT" xmlns="http://www.w3.org/2000/svg" width="24" height="24" viewBox="0 0 24 24"><defs><style>.cls-1{fill:#080808;}</style></defs><title>strikethrough</title><path class="cls-1" d="M12.51,9.65c-1.42-.57-2.61-1-2.61-2.22s1-1.8,2.46-1.8A5.47,5.47,0,0,1,16,7l1.71-2.12a7.63,7.63,0,0,0-5.33-2.19c-3.4,0-5.84,2.15-5.84,4.9a4.4,4.4,0,0,0,.47,2Z"/><path class="cls-1" d="M21,11.32H3V13h8.82l.4.17c1.52.64,2.56,1,2.56,2.3s-.94,2-2.72,2a6.7,6.7,0,0,1-4.32-1.87L5.8,17.86A9,9,0,0,0,12,20.33c3.91,0,6.22-2.35,6.22-5.13A4.81,4.81,0,0,0,17.71,13H21Z"/></svg>