<svg id="EXPORT" xmlns="http://www.w3.org/2000/svg" width="24" height="24" viewBox="0 0 24 24"><defs><style>.cls-1{fill:#080808;}</style></defs><title>text_treatment</title><path class="cls-1" d="M13.16,20h3L11,4H7.62L2.4,20H5.3l1.25-4.34h5.37Zm-6-6.56,2-7.23h.09l2,7.23Z"/><polygon class="cls-1" points="13.41 4.02 14.07 6.03 16.09 4.01 13.41 4.02"/><polygon class="cls-1" points="16.98 5.79 14.72 8.05 15.39 10.1 17.65 7.84 16.98 5.79"/><polygon class="cls-1" points="18.3 9.86 16.05 12.12 16.71 14.17 18.97 11.91 18.3 9.86"/><polygon class="cls-1" points="19.63 13.93 17.37 16.19 18.03 18.24 20.29 15.97 19.63 13.93"/><polygon class="cls-1" points="20.95 18 18.94 20 21.59 19.99 20.95 18"/></svg>