<svg id="EXPORT" xmlns="http://www.w3.org/2000/svg" width="24" height="24" viewBox="0 0 24 24"><defs><style>.cls-1{fill:#080808;}</style></defs><title>tools</title><path class="cls-1" d="M20.7,6.41A1,1,0,0,0,20.7,5L19,3.29a1,1,0,0,0-1.41,0L16.18,4.7l3,3.13Z"/><polygon class="cls-1" points="3 17.98 3 21 5.97 21 10.86 16.12 7.83 13.09 3 17.98"/><polygon class="cls-1" points="18.17 8.82 15.14 5.68 13.01 7.84 16.08 10.91 18.17 8.82"/><path class="cls-1" d="M10.51,7.47A3.75,3.75,0,0,0,7.45,3.14a3.71,3.71,0,0,0-1.78.12L7.1,4.68A1.74,1.74,0,1,1,4.7,7.2l-.06-.06L3.22,5.72a3.76,3.76,0,0,0,2.43,4.72,3.82,3.82,0,0,0,1.78.12l9.72,9.72a2.18,2.18,0,0,0,3.09-3.09Zm8.65,11.74a.76.76,0,0,1-1.07-1.08.77.77,0,0,1,1.07,0,.76.76,0,0,1,0,1.07h0Z"/></svg>