<svg id="EXPORT" xmlns="http://www.w3.org/2000/svg" width="24" height="24" viewBox="0 0 24 24"><defs><style>.cls-1{fill:#080808;}</style></defs><title>unlink</title><path class="cls-1" d="M12,14.83,8.46,18.36a2,2,0,0,1-2.82-2.82L9.17,12,7.76,10.59,4.22,14.12a4,4,0,0,0,5.66,5.66l3.53-3.54Z"/><path class="cls-1" d="M14.12,4.22,10.59,7.76,12,9.17l3.54-3.53a2,2,0,0,1,2.82,2.82L14.83,12l1.41,1.41,3.54-3.53a4,4,0,0,0-5.66-5.66Z"/><path class="cls-1" d="M5.28,5.28a.51.51,0,0,0,0,.71L7.4,8.11a.5.5,0,0,0,.71-.71L6,5.28A.51.51,0,0,0,5.28,5.28Z"/><path class="cls-1" d="M9.53,6.7a.51.51,0,0,0,.14-.36V3.51a.5.5,0,0,0-.5-.5.51.51,0,0,0-.5.5V6.34a.5.5,0,0,0,.5.5A.52.52,0,0,0,9.53,6.7Z"/><path class="cls-1" d="M3.51,8.67a.51.51,0,0,0-.5.5.5.5,0,0,0,.5.5H6.34a.51.51,0,0,0,.36-.14.52.52,0,0,0,.14-.36.5.5,0,0,0-.5-.5Z"/><path class="cls-1" d="M15.89,15.89a.5.5,0,0,0,0,.71L18,18.72a.5.5,0,1,0,.71-.71L16.6,15.89A.5.5,0,0,0,15.89,15.89Z"/><path class="cls-1" d="M17.66,14.33a.5.5,0,0,0-.5.5.5.5,0,0,0,.5.5h2.83a.51.51,0,0,0,.35-.15.49.49,0,0,0,.15-.35.5.5,0,0,0-.5-.5Z"/><path class="cls-1" d="M14.33,17.66v2.83a.5.5,0,0,0,.5.5.49.49,0,0,0,.35-.15.51.51,0,0,0,.15-.35V17.66a.5.5,0,0,0-.5-.5A.5.5,0,0,0,14.33,17.66Z"/></svg>