<svg id="EXPORT" xmlns="http://www.w3.org/2000/svg" width="24" height="24" viewBox="0 0 24 24"><defs><style>.cls-1{fill:#080808;fill-rule:evenodd;}</style></defs><title>visibility_off</title><path class="cls-1" d="M10.75,16a4.3,4.3,0,0,0,1.25.19A4.17,4.17,0,0,0,16.16,12,3.92,3.92,0,0,0,16,10.76l2.34-2.34a18.42,18.42,0,0,1,3.6,3.32.42.42,0,0,1,0,.52c-.18.23-4.48,5.57-9.91,5.57a8.79,8.79,0,0,1-2.68-.42Zm3.13-7.69A4.08,4.08,0,0,0,12,7.83a4.17,4.17,0,0,0-3.72,6.06l1.28-1.28A2.69,2.69,0,0,1,9.5,12,2.5,2.5,0,0,1,12,9.54a2.76,2.76,0,0,1,.57.06ZM6.23,15.94a18.1,18.1,0,0,1-4.14-3.68.42.42,0,0,1,0-.52c.18-.23,4.47-5.57,9.91-5.57a9.33,9.33,0,0,1,3.35.65L18.5,3.67l1.18,1.18L14,10.53a2.5,2.5,0,0,1-2,4,2.53,2.53,0,0,1-1.51-.5L5,19.58,3.77,18.4Z"/></svg>