<svg id="EXPORT" xmlns="http://www.w3.org/2000/svg" width="24" height="24" viewBox="0 0 24 24"><defs><style>.cls-1,.cls-2{fill:#080808;}.cls-2{fill-rule:evenodd;}</style></defs><title>writing_edit</title><path class="cls-1" d="M4,21l-.36-1.33c.15,0,3.23-.54,4.21-3l-.17,0c-1.27-.34-2.21-1.43-2.56-3.37s.07-2.78.45-3.12a1.56,1.56,0,0,1,1.67-.22c1,.39,2.18,1.78,2.4,4.41a4.86,4.86,0,0,1,0,.65A8.31,8.31,0,0,0,12.35,13h1.84a10.55,10.55,0,0,1-4.78,3.43C8.61,19.26,5.65,20.49,4,21ZM6.6,11.11a.08.08,0,0,0-.07,0c-.1.09-.3.57,0,1.71.35,1.37.81,2.07,1.55,2.26l.13,0a1.54,1.54,0,0,0,.09-.75c-.17-2-1-3-1.53-3.24A.65.65,0,0,0,6.6,11.11Z"/><path class="cls-2" d="M19,3.17l-.77.77,1.8,1.81L20.84,5a.65.65,0,0,0,0-.91l-.9-.9A.65.65,0,0,0,19,3.17Z"/><polygon class="cls-2" points="17.64 4.56 12.29 9.91 12.29 11.71 14.1 11.71 19.45 6.37 17.64 4.56"/></svg>