<svg id="EXPORT" xmlns="http://www.w3.org/2000/svg" width="24" height="24" viewBox="0 0 24 24"><defs><style>.cls-1{fill-rule:evenodd;}</style></defs><title>write</title><path d="M7.22,21a21.57,21.57,0,0,1-3.6-.38l1.1-1.1A11.64,11.64,0,0,0,7,19.76a8.25,8.25,0,0,0,1.46-.13l.36-.15-.29-.23c-.44-.37-1.14-.84-1.65-1.18C5.06,16.81,3.6,15.82,3.77,14.7c.08-.53.51-.92,1.25-1.14a4.28,4.28,0,0,1,1.21-.14,23.72,23.72,0,0,1,4.8.78,23.63,23.63,0,0,0,3.6.62h.28l-.13-.26a18.06,18.06,0,0,0-1.84-2L12.39,12h1.5l.35.37c1.89,1.94,2.28,2.38,1.87,3.11-.26.47-.74.67-1.54.67a20.24,20.24,0,0,1-3.83-.65,24.72,24.72,0,0,0-4.52-.75,3,3,0,0,0-.82.09l-.26.08.15.21A17.24,17.24,0,0,0,7.66,17c1.75,1.18,2.65,1.83,2.68,2.62a1,1,0,0,1-.39.81A4.65,4.65,0,0,1,7.22,21Z"/><path class="cls-1" d="M18,3.06l.88-.88a.63.63,0,0,1,.88,0l1,1.07a.61.61,0,0,1,0,.88L19.87,5"/><polygon class="cls-1" points="14.14 10.71 12.29 10.71 12.29 8.83 17.36 3.67 19.25 5.62 14.14 10.71"/></svg>